<svg width="16" height="14" viewBox="0 0 16 14" fill="none" xmlns="http://www.w3.org/2000/svg">
<path d="M15.4136 10.6014H15.4138V9.16406L1 9.99589V11.472H1.00023C1.00817 12.1482 1.58656 12.7931 2.75894 13.2758C5.36464 14.3487 9.91609 14.2141 12.9249 12.9753C14.5746 12.296 15.4178 11.4258 15.4136 10.6014Z" fill="url(#paint0_linear_16670_4158)"/>
<path d="M14.8166 9.19727L11.3711 9.39612V13.4844C11.9187 13.343 12.4412 13.1728 12.9239 12.9741C13.7679 12.6266 14.4003 12.229 14.8166 11.8133V9.19727Z" fill="url(#paint1_linear_16670_4158)"/>
<path d="M0.996094 11.4584V11.4797H0.996324C1.00388 12.1225 1.5272 12.7368 2.58559 13.2105L4.65312 12.3593L2.24432 9.93164L0.996094 10.0037V11.4584Z" fill="url(#paint2_linear_16670_4158)"/>
<path d="M12.925 11.529C15.9338 10.2902 16.2606 8.41626 13.6549 7.34342C11.0492 6.27057 6.49777 6.40513 3.48899 7.64394C0.480214 8.88274 0.153404 10.7567 2.7591 11.8295C5.36481 12.9024 9.91622 12.7678 12.925 11.529Z" fill="url(#paint3_linear_16670_4158)"/>
<path d="M13.0899 7.57697C10.7542 6.61528 6.67429 6.7359 3.97722 7.84634C1.28014 8.95682 0.987227 10.6366 3.32294 11.5983C5.65866 12.56 9.73856 12.4394 12.4356 11.3289C15.1327 10.2185 15.4256 8.53866 13.0899 7.57697ZM11.794 11.0647C9.50611 12.0067 6.04517 12.109 4.0638 11.2933C2.08242 10.4775 2.33089 9.05252 4.6188 8.11052C6.9067 7.16852 10.3676 7.06622 12.349 7.882C14.3304 8.69781 14.0819 10.1228 11.794 11.0647Z" fill="url(#paint4_linear_16670_4158)"/>
<path d="M3.97718 7.97568C6.67426 6.86524 10.7542 6.74462 13.0899 7.70631C14.1108 8.12665 14.6294 8.68419 14.6648 9.27139C14.7027 8.63716 14.1855 8.02805 13.0899 7.57697C10.7542 6.61528 6.67426 6.7359 3.97718 7.84634C2.45893 8.47145 1.70259 9.27694 1.74803 10.0332C1.79097 9.31536 2.54521 8.56527 3.97718 7.97568Z" fill="url(#paint5_linear_16670_4158)"/>
<path d="M4.06393 11.4216C6.04531 12.2373 9.50624 12.135 11.7941 11.193C13.0886 10.6601 13.73 9.97251 13.6843 9.32812C13.6416 9.93411 13.0023 10.5662 11.7941 11.0637C9.50624 12.0057 6.04531 12.108 4.06393 11.2922C3.2036 10.938 2.76394 10.4689 2.72885 9.97434C2.6907 10.5159 3.1289 11.0365 4.06393 11.4216Z" fill="url(#paint6_linear_16670_4158)"/>
<path d="M2.75487 11.8377C3.31033 12.0664 3.95444 12.2401 4.65297 12.3601H6.12881V8.93164H1.47923C0.55229 9.96645 0.949424 11.0944 2.75487 11.8377Z" fill="url(#paint7_linear_16670_4158)"/>
<path d="M14.4195 8.96082H14.4197V7.52344L0.00585938 8.35527V9.83139H0.00608946C0.0140268 10.5076 0.592415 11.1525 1.7648 11.6352C4.3705 12.708 8.92195 12.5735 11.9307 11.3347C13.5804 10.6554 14.4237 9.78521 14.4195 8.96082Z" fill="url(#paint8_linear_16670_4158)"/>
<path d="M9.65039 12.0131C10.4643 11.8462 11.2391 11.6197 11.932 11.3344C12.3799 11.15 12.7678 10.9514 13.0959 10.7436V7.59961L9.65039 7.79846V12.0131Z" fill="url(#paint9_linear_16670_4158)"/>
<path d="M0 9.81034V9.83164H0.000230087C0.0081674 10.5078 0.586556 11.1528 1.75894 11.6354C1.84076 11.6691 1.92372 11.7013 2.00776 11.7321L4.26932 10.8009L2.33679 8.2207L3.83234e-05 8.35557L0 9.81034Z" fill="url(#paint10_linear_16670_4158)"/>
<path d="M11.9309 9.88842C14.9397 8.64961 15.2665 6.77565 12.6608 5.7028C10.0551 4.62995 5.50364 4.76449 2.49486 6.00332C-0.513952 7.24212 -0.840724 9.11609 1.76498 10.1889C4.37068 11.2618 8.92213 11.1272 11.9309 9.88842Z" fill="url(#paint11_linear_16670_4158)"/>
<path d="M12.0977 5.93439C9.762 4.9727 5.6821 5.09332 2.98503 6.20377C0.287953 7.31424 -0.00496083 8.99403 2.33076 9.95572C4.66647 10.9174 8.74637 10.7968 11.4434 9.68635C14.1405 8.5759 14.4334 6.89608 12.0977 5.93439ZM10.8019 9.42219C8.51396 10.3642 5.05302 10.4665 3.07165 9.65072C1.09027 8.83494 1.33875 7.40995 3.62665 6.46797C5.91455 5.52597 9.37549 5.42367 11.3569 6.23945C13.3382 7.05523 13.0897 8.48019 10.8019 9.42219Z" fill="url(#paint12_linear_16670_4158)"/>
<path d="M2.985 6.33311C5.68207 5.22263 9.76197 5.10204 12.0977 6.06373C13.1186 6.48408 13.6373 7.04158 13.6726 7.62881C13.7105 6.99458 13.1933 6.38547 12.0977 5.93439C9.76193 4.9727 5.68207 5.09332 2.985 6.20377C1.46675 6.82887 0.7104 7.63436 0.755838 8.39064C0.798784 7.67276 1.55302 6.92269 2.985 6.33311Z" fill="url(#paint13_linear_16670_4158)"/>
<path d="M3.06979 9.78094C5.05117 10.5967 8.5121 10.4944 10.8 9.55242C12.0945 9.01944 12.7358 8.33188 12.6901 7.6875C12.6474 8.29349 12.0082 8.92559 10.8 9.42305C8.5121 10.365 5.05117 10.4673 3.06979 9.65157C2.20946 9.29734 1.7698 8.82824 1.73471 8.33371C1.69656 8.87528 2.13476 9.39595 3.06979 9.78094Z" fill="url(#paint14_linear_16670_4158)"/>
<path d="M6.5038 6.07031C6.5038 6.07031 4.28573 6.0798 2.30063 6.083C-0.532145 7.32126 -0.791277 9.13851 1.7589 10.1885C2.47334 10.4826 3.33421 10.6858 4.26928 10.8006H6.83686L6.5038 6.07031Z" fill="url(#paint15_linear_16670_4158)"/>
<path d="M15.1832 7.40808H15.1833V5.9707L0.769531 6.80253V8.27866H0.769761C0.777699 8.95487 1.35609 9.59977 2.52847 10.0825C5.13417 11.1553 9.68563 11.0207 12.6944 9.78194C14.3441 9.10267 15.1874 8.23247 15.1832 7.40808Z" fill="url(#paint16_linear_16670_4158)"/>
<path d="M10.3867 10.4681C11.2101 10.3008 11.9938 10.0724 12.694 9.78406C13.1303 9.60443 13.5095 9.41138 13.8323 9.20943V6.05078L10.3868 6.24963V10.4681H10.3867Z" fill="url(#paint17_linear_16670_4158)"/>
<path d="M0.769531 8.25988V8.28118H0.769761C0.777315 8.92389 1.3006 9.53822 2.35903 10.0119L4.42656 9.1607L3.61891 6.64062L0.769531 6.80508V8.25988Z" fill="url(#paint18_linear_16670_4158)"/>
<path d="M12.6946 8.33567C15.7033 7.09687 16.0302 5.2229 13.4245 4.15006C10.8188 3.07721 6.2673 3.21177 3.25852 4.45058C0.249745 5.68938 -0.0770648 7.56334 2.52864 8.63619C5.13434 9.70901 9.68579 9.57447 12.6946 8.33567Z" fill="url(#paint19_linear_16670_4158)"/>
<path d="M12.8614 4.38361C10.5257 3.42192 6.44578 3.54254 3.7487 4.65298C1.05162 5.76346 0.758711 7.44325 3.09443 8.40494C5.43015 9.36663 9.51004 9.24604 12.2071 8.13556C14.9042 7.02512 15.1971 5.3453 12.8614 4.38361ZM11.5655 7.87141C9.27763 8.81342 5.8167 8.91571 3.83532 8.09993C1.85394 7.28416 2.10242 5.85916 4.39032 4.91719C6.67822 3.97519 10.1392 3.87289 12.1205 4.68867C14.1019 5.50445 13.8534 6.92941 11.5655 7.87141Z" fill="url(#paint20_linear_16670_4158)"/>
<path d="M3.74867 4.78232C6.44574 3.67185 10.5256 3.55126 12.8614 4.51295C13.8823 4.9333 14.4009 5.49083 14.4362 6.07803C14.4742 5.4438 13.957 4.83469 12.8614 4.38361C10.5256 3.42192 6.44574 3.54254 3.74867 4.65298C2.23042 5.27809 1.47407 6.08358 1.51951 6.83986C1.56249 6.12197 2.31673 5.37191 3.74867 4.78232Z" fill="url(#paint21_linear_16670_4158)"/>
<path d="M3.83347 8.2282C5.81484 9.04398 9.27578 8.94168 11.5637 7.99968C12.8582 7.4667 13.4995 6.77915 13.4538 6.13477C13.4111 6.74075 12.7718 7.37286 11.5637 7.87031C9.27578 8.81231 5.81484 8.91461 3.83347 8.09883C2.97313 7.74461 2.53347 7.27551 2.49839 6.78098C2.4602 7.32254 2.8984 7.84321 3.83347 8.2282Z" fill="url(#paint22_linear_16670_4158)"/>
<path d="M6.27862 5.10193L2.45958 4.82812C0.214086 6.04587 0.175359 7.66799 2.52848 8.63685C3.08394 8.86556 3.72805 9.0392 4.42658 9.15916H7.83379L6.27862 5.10193Z" fill="url(#paint23_linear_16670_4158)"/>
<path d="M15.9996 5.75965H15.9998V4.32227L1.58594 5.15409V6.63022L1.58617 6.63019C1.5941 7.3064 2.17249 7.9513 3.34484 8.43399C5.95054 9.50684 10.502 9.37228 13.5108 8.13348C15.1605 7.45423 16.0038 6.58404 15.9996 5.75965Z" fill="url(#paint24_linear_16670_4158)"/>
<path d="M15.3928 4.35742L11.9473 4.55627V8.64684C12.4991 8.50478 13.0256 8.33368 13.5116 8.13355C14.3477 7.78928 14.9763 7.39589 15.3928 6.98436V4.35742Z" fill="url(#paint25_linear_16670_4158)"/>
<path d="M1.58598 6.60999V6.63129H1.58621C1.59257 7.17512 1.96827 7.69861 2.72481 8.13386L4.56956 7.3743L2.34619 5.11133L1.58594 5.15519L1.58598 6.60999Z" fill="url(#paint26_linear_16670_4158)"/>
<path d="M13.511 6.68723C16.5198 5.44843 16.8466 3.57446 14.2409 2.50162C11.6352 1.42877 7.08371 1.56334 4.07493 2.80214C1.06615 4.04094 0.739341 5.91491 3.34504 6.98775C5.95071 8.0606 10.5022 7.92604 13.511 6.68723Z" fill="url(#paint27_linear_16670_4158)"/>
<path d="M13.6758 2.73517C11.3401 1.77348 7.26023 1.8941 4.56315 3.00455C1.86608 4.11502 1.57316 5.79481 3.90888 6.7565C6.2446 7.71819 10.3245 7.59757 13.0216 6.48713C15.7186 5.37668 16.0116 3.69686 13.6758 2.73517ZM12.38 6.22298C10.0921 7.16498 6.63115 7.26727 4.64977 6.4515C2.6684 5.63572 2.91687 4.21075 5.20477 3.26875C7.49267 2.32675 10.9536 2.22445 12.935 3.04023C14.9164 3.85601 14.6679 5.28097 12.38 6.22298Z" fill="url(#paint28_linear_16670_4158)"/>
<path d="M4.56312 3.13389C7.2602 2.02341 11.3401 1.90282 13.6758 2.86451C14.6967 3.28486 15.2154 3.84236 15.2507 4.42959C15.2887 3.79536 14.7714 3.18625 13.6758 2.73517C11.3401 1.77348 7.2602 1.8941 4.56312 3.00455C3.04487 3.62965 2.28853 4.43514 2.33396 5.19142C2.37695 4.47354 3.13118 3.72347 4.56312 3.13389Z" fill="url(#paint29_linear_16670_4158)"/>
<path d="M4.65182 6.57976C6.6332 7.39554 10.0941 7.29325 12.382 6.35124C13.6765 5.81827 14.3179 5.13071 14.2721 4.48633C14.2294 5.09232 13.5902 5.72442 12.382 6.22188C10.0941 7.16388 6.6332 7.26617 4.65182 6.4504C3.79149 6.09617 3.35183 5.62707 3.31674 5.13254C3.27859 5.6741 3.71675 6.19475 4.65182 6.57976Z" fill="url(#paint30_linear_16670_4158)"/>
<path d="M3.34655 6.98724C3.71849 7.14037 4.13016 7.26881 4.57124 7.37305H6.83809L1.58807 5.14844C1.57611 5.83736 2.154 6.49624 3.34655 6.98724Z" fill="url(#paint31_linear_16670_4158)"/>
<path d="M15.1832 3.9823H15.1833V2.54492L0.769531 3.37675V4.85288H0.769761C0.777699 5.52909 1.35609 6.17399 2.52847 6.65668C5.13417 7.72953 9.68563 7.59496 12.6944 6.35616C14.3441 5.67689 15.1874 4.80669 15.1832 3.9823Z" fill="url(#paint32_linear_16670_4158)"/>
<path d="M14.2736 2.59766L10.8281 2.79651V6.94414C11.4906 6.78885 12.1212 6.59276 12.6955 6.35631C13.3492 6.08718 13.8757 5.788 14.2736 5.47362V2.59766Z" fill="url(#paint33_linear_16670_4158)"/>
<path d="M12.6946 4.9099C15.7034 3.6711 16.0302 1.79713 13.4245 0.724284C10.8188 -0.348562 6.26735 -0.214026 3.25854 1.0248C0.24972 2.26363 -0.0770519 4.13757 2.52865 5.21042C5.13435 6.28324 9.6858 6.1487 12.6946 4.9099Z" fill="url(#paint34_linear_16670_4158)"/>
<path d="M13.4245 0.724284C10.8188 -0.348562 6.26735 -0.214026 3.25854 1.0248C0.24972 2.26363 -0.077052 4.13757 2.52865 5.21042C2.61645 5.24649 2.70557 5.28091 2.79591 5.31365L13.6752 0.834319C13.5931 0.795986 13.5095 0.759293 13.4245 0.724284Z" fill="url(#paint35_linear_16670_4158)"/>
<path d="M10.7648 1.81894C10.656 1.77432 10.5435 1.73441 10.4279 1.69941C10.1413 1.61221 9.80876 1.65998 9.58847 1.81708L9.29978 2.02296C9.14705 2.13187 9.18563 2.31232 9.37298 2.38891L9.37674 2.39044C10.047 2.66641 9.96295 3.14847 9.189 3.46712C8.41502 3.78579 7.24424 3.82038 6.57398 3.54442C5.90372 3.26846 5.98777 2.78639 6.76172 2.46775L6.76498 2.46641C6.92717 2.3999 6.95988 2.2433 6.82759 2.14893L6.53353 1.93923C6.35872 1.81456 6.09218 1.78046 5.86921 1.85664C5.76395 1.89251 5.66066 1.93126 5.55958 1.9728C4.01901 2.60709 3.85168 3.56662 5.18587 4.11595C6.52007 4.66528 8.85053 4.59638 10.3911 3.96209C11.9317 3.32777 12.099 2.36824 10.7648 1.81894Z" fill="url(#paint36_linear_16670_4158)"/>
<path d="M12.8614 0.957815C10.5257 -0.00384682 6.44578 0.116744 3.7487 1.22722C1.05162 2.33769 0.758711 4.01748 3.09443 4.97917C5.43015 5.94086 9.51004 5.82024 12.2071 4.7098C14.9042 3.59932 15.1971 1.91951 12.8614 0.957815ZM11.5655 4.44562C9.27763 5.38762 5.8167 5.48992 3.83532 4.67414C1.85394 3.85836 2.10242 2.4334 4.39032 1.49139C6.67822 0.549393 10.1392 0.447096 12.1205 1.26287C14.1019 2.07865 13.8534 3.50362 11.5655 4.44562Z" fill="url(#paint37_linear_16670_4158)"/>
<path d="M3.74867 1.35655C6.44574 0.24608 10.5256 0.12549 12.8614 1.08718C13.8823 1.50752 14.4009 2.06506 14.4362 2.65226C14.4742 2.01802 13.957 1.40892 12.8614 0.957838C10.5256 -0.00385129 6.44574 0.116739 3.74867 1.22721C2.23042 1.85231 1.47407 2.65781 1.51951 3.41409C1.56249 2.6962 2.31673 1.94613 3.74867 1.35655Z" fill="url(#paint38_linear_16670_4158)"/>
<path d="M3.83347 4.80239C5.81484 5.61817 9.27578 5.51587 11.5637 4.57387C12.8582 4.0409 13.4995 3.35334 13.4538 2.70898C13.4111 3.31497 12.7719 3.94708 11.5637 4.44453C9.27578 5.38653 5.81484 5.48883 3.83347 4.67305C2.97313 4.31883 2.53347 3.84973 2.49839 3.3552C2.4602 3.89673 2.8984 4.41741 3.83347 4.80239Z" fill="url(#paint39_linear_16670_4158)"/>
<defs>
<linearGradient id="paint0_linear_16670_4158" x1="0.863225" y1="11.5821" x2="14.0217" y2="11.5821" gradientUnits="userSpaceOnUse">
<stop stop-color="#BA5C25"/>
<stop offset="0.222" stop-color="#FFC538"/>
<stop offset="0.346" stop-color="#FFA538"/>
<stop offset="0.465" stop-color="#FBC23C"/>
<stop offset="0.584" stop-color="#F8D840"/>
<stop offset="0.66" stop-color="#F7E041"/>
<stop offset="0.752" stop-color="#F9D53F"/>
<stop offset="0.915" stop-color="#FDB73B"/>
<stop offset="1" stop-color="#FFA538"/>
</linearGradient>
<linearGradient id="paint1_linear_16670_4158" x1="15.0455" y1="9.99188" x2="11.3561" y2="12.9788" gradientUnits="userSpaceOnUse">
<stop stop-color="white"/>
<stop offset="1" stop-color="white" stop-opacity="0"/>
</linearGradient>
<linearGradient id="paint2_linear_16670_4158" x1="2.1319" y1="11.283" x2="3.4005" y2="14.3641" gradientUnits="userSpaceOnUse">
<stop stop-color="#8B451C"/>
<stop offset="1" stop-color="#8B451C" stop-opacity="0"/>
</linearGradient>
<linearGradient id="paint3_linear_16670_4158" x1="6.07288" y1="8.84191" x2="13.5633" y2="13.9806" gradientUnits="userSpaceOnUse">
<stop stop-color="#E37A34"/>
<stop offset="0.549" stop-color="#FFA538"/>
<stop offset="0.989" stop-color="#FFC538"/>
</linearGradient>
<linearGradient id="paint4_linear_16670_4158" x1="15.3513" y1="12.5882" x2="4.4079" y2="3.55139" gradientUnits="userSpaceOnUse">
<stop stop-color="#E37A34"/>
<stop offset="0.549" stop-color="#FFA538"/>
<stop offset="0.989" stop-color="#FFC538"/>
</linearGradient>
<linearGradient id="paint5_linear_16670_4158" x1="12.4647" y1="10.924" x2="1.79276" y2="2.11136" gradientUnits="userSpaceOnUse">
<stop stop-color="#BA5C25"/>
<stop offset="0.199" stop-color="#FFC538"/>
<stop offset="0.409" stop-color="#FFA538"/>
<stop offset="0.621" stop-color="#F7E041"/>
<stop offset="1" stop-color="#FFA538"/>
</linearGradient>
<linearGradient id="paint6_linear_16670_4158" x1="11.555" y1="11.5008" x2="2.49603" y2="4.0201" gradientUnits="userSpaceOnUse">
<stop stop-color="#BA5C25"/>
<stop offset="0.199" stop-color="#FFC538"/>
<stop offset="0.409" stop-color="#FFA538"/>
<stop offset="0.621" stop-color="#F7E041"/>
<stop offset="1" stop-color="#FFA538"/>
</linearGradient>
<linearGradient id="paint7_linear_16670_4158" x1="3.38257" y1="10.8194" x2="-0.0676028" y2="13.6126" gradientUnits="userSpaceOnUse">
<stop stop-color="#8B451C"/>
<stop offset="1" stop-color="#8B451C" stop-opacity="0"/>
</linearGradient>
<linearGradient id="paint8_linear_16670_4158" x1="-2.37349" y1="9.94143" x2="10.785" y2="9.94143" gradientUnits="userSpaceOnUse">
<stop stop-color="#BA5C25"/>
<stop offset="0.222" stop-color="#FFC538"/>
<stop offset="0.346" stop-color="#FFA538"/>
<stop offset="0.427" stop-color="#FBC23C"/>
<stop offset="0.508" stop-color="#F8D840"/>
<stop offset="0.56" stop-color="#F7E041"/>
<stop offset="0.622" stop-color="#F9D53F"/>
<stop offset="0.731" stop-color="#FDB73B"/>
<stop offset="0.788" stop-color="#FFA538"/>
<stop offset="1" stop-color="#FFC538"/>
</linearGradient>
<linearGradient id="paint9_linear_16670_4158" x1="13.6852" y1="8.37489" x2="10.6027" y2="10.8704" gradientUnits="userSpaceOnUse">
<stop stop-color="white"/>
<stop offset="1" stop-color="white" stop-opacity="0"/>
</linearGradient>
<linearGradient id="paint10_linear_16670_4158" x1="0.746146" y1="8.72385" x2="2.12706" y2="12.0778" gradientUnits="userSpaceOnUse">
<stop stop-color="#8B451C"/>
<stop offset="1" stop-color="#8B451C" stop-opacity="0"/>
</linearGradient>
<linearGradient id="paint11_linear_16670_4158" x1="5.07875" y1="7.20127" x2="12.5692" y2="12.34" gradientUnits="userSpaceOnUse">
<stop stop-color="#E37A34"/>
<stop offset="0.549" stop-color="#FFA538"/>
<stop offset="0.989" stop-color="#FFC538"/>
</linearGradient>
<linearGradient id="paint12_linear_16670_4158" x1="14.3592" y1="10.9457" x2="3.41572" y2="1.9088" gradientUnits="userSpaceOnUse">
<stop offset="0.022" stop-color="#FFC538"/>
<stop offset="0.263" stop-color="#FFA538"/>
<stop offset="0.621" stop-color="#F7E041"/>
<stop offset="1" stop-color="#FFA538"/>
</linearGradient>
<linearGradient id="paint13_linear_16670_4158" x1="11.4726" y1="9.28145" x2="0.800567" y2="0.468782" gradientUnits="userSpaceOnUse">
<stop stop-color="#BA5C25"/>
<stop offset="0.199" stop-color="#FFC538"/>
<stop offset="0.409" stop-color="#FFA538"/>
<stop offset="0.621" stop-color="#F7E041"/>
<stop offset="1" stop-color="#FFA538"/>
</linearGradient>
<linearGradient id="paint14_linear_16670_4158" x1="10.5608" y1="9.86013" x2="1.50187" y2="2.3795" gradientUnits="userSpaceOnUse">
<stop stop-color="#BA5C25"/>
<stop offset="0.199" stop-color="#FFC538"/>
<stop offset="0.409" stop-color="#FFA538"/>
<stop offset="0.621" stop-color="#F7E041"/>
<stop offset="1" stop-color="#FFA538"/>
</linearGradient>
<linearGradient id="paint15_linear_16670_4158" x1="3.77716" y1="8.76769" x2="-1.88137" y2="13.3488" gradientUnits="userSpaceOnUse">
<stop stop-color="#8B451C"/>
<stop offset="1" stop-color="#8B451C" stop-opacity="0"/>
</linearGradient>
<linearGradient id="paint16_linear_16670_4158" x1="0.632795" y1="8.3887" x2="13.7912" y2="8.3887" gradientUnits="userSpaceOnUse">
<stop stop-color="#BA5C25"/>
<stop offset="0.222" stop-color="#FFC538"/>
<stop offset="0.346" stop-color="#FFA538"/>
<stop offset="0.403" stop-color="#FBC23C"/>
<stop offset="0.46" stop-color="#F8D840"/>
<stop offset="0.496" stop-color="#F7E041"/>
<stop offset="0.633" stop-color="#F9D53F"/>
<stop offset="0.874" stop-color="#FDB73B"/>
<stop offset="1" stop-color="#FFA538"/>
</linearGradient>
<linearGradient id="paint17_linear_16670_4158" x1="14.4229" y1="6.83003" x2="11.7465" y2="8.99683" gradientUnits="userSpaceOnUse">
<stop stop-color="white"/>
<stop offset="1" stop-color="white" stop-opacity="0"/>
</linearGradient>
<linearGradient id="paint18_linear_16670_4158" x1="0.551888" y1="5.65137" x2="2.60939" y2="10.6486" gradientUnits="userSpaceOnUse">
<stop stop-color="#8B451C"/>
<stop offset="1" stop-color="#8B451C" stop-opacity="0"/>
</linearGradient>
<linearGradient id="paint19_linear_16670_4158" x1="5.84241" y1="5.64852" x2="13.3329" y2="10.7872" gradientUnits="userSpaceOnUse">
<stop stop-color="#E37A34"/>
<stop offset="0.549" stop-color="#FFA538"/>
<stop offset="0.989" stop-color="#FFC538"/>
</linearGradient>
<linearGradient id="paint20_linear_16670_4158" x1="15.1229" y1="9.39487" x2="4.17944" y2="0.358023" gradientUnits="userSpaceOnUse">
<stop offset="0.022" stop-color="#FFC538"/>
<stop offset="0.263" stop-color="#FFA538"/>
<stop offset="0.621" stop-color="#F7E041"/>
<stop offset="1" stop-color="#FFA538"/>
</linearGradient>
<linearGradient id="paint21_linear_16670_4158" x1="12.2362" y1="7.73067" x2="1.56428" y2="-1.08199" gradientUnits="userSpaceOnUse">
<stop stop-color="#BA5C25"/>
<stop offset="0.199" stop-color="#FFC538"/>
<stop offset="0.409" stop-color="#FFA538"/>
<stop offset="0.621" stop-color="#F7E041"/>
<stop offset="1" stop-color="#FFA538"/>
</linearGradient>
<linearGradient id="paint22_linear_16670_4158" x1="11.3245" y1="8.30739" x2="2.26551" y2="0.82677" gradientUnits="userSpaceOnUse">
<stop stop-color="#BA5C25"/>
<stop offset="0.199" stop-color="#FFC538"/>
<stop offset="0.409" stop-color="#FFA538"/>
<stop offset="0.621" stop-color="#F7E041"/>
<stop offset="1" stop-color="#FFA538"/>
</linearGradient>
<linearGradient id="paint23_linear_16670_4158" x1="6.73024" y1="6.34166" x2="-1.98631" y2="13.3985" gradientUnits="userSpaceOnUse">
<stop stop-color="#8B451C"/>
<stop offset="1" stop-color="#8B451C" stop-opacity="0"/>
</linearGradient>
<linearGradient id="paint24_linear_16670_4158" x1="2.02353" y1="6.74026" x2="15.182" y2="6.74026" gradientUnits="userSpaceOnUse">
<stop stop-color="#BA5C25"/>
<stop offset="0.222" stop-color="#FFC538"/>
<stop offset="0.346" stop-color="#FFA538"/>
<stop offset="0.497" stop-color="#FBC23C"/>
<stop offset="0.647" stop-color="#F8D840"/>
<stop offset="0.744" stop-color="#F7E041"/>
<stop offset="0.814" stop-color="#F9D53F"/>
<stop offset="0.936" stop-color="#FDB73B"/>
<stop offset="1" stop-color="#FFA538"/>
</linearGradient>
<linearGradient id="paint25_linear_16670_4158" x1="15.344" y1="5.26841" x2="12.5903" y2="7.49784" gradientUnits="userSpaceOnUse">
<stop stop-color="white"/>
<stop offset="1" stop-color="white" stop-opacity="0"/>
</linearGradient>
<linearGradient id="paint26_linear_16670_4158" x1="1.78636" y1="5.62675" x2="2.91904" y2="8.37773" gradientUnits="userSpaceOnUse">
<stop stop-color="#8B451C"/>
<stop offset="1" stop-color="#8B451C" stop-opacity="0"/>
</linearGradient>
<linearGradient id="paint27_linear_16670_4158" x1="6.65877" y1="4.00011" x2="14.1493" y2="9.1388" gradientUnits="userSpaceOnUse">
<stop stop-color="#FFA538"/>
<stop offset="1" stop-color="#F7E041"/>
</linearGradient>
<linearGradient id="paint28_linear_16670_4158" x1="15.9373" y1="7.74641" x2="4.99387" y2="-1.29041" gradientUnits="userSpaceOnUse">
<stop stop-color="#E37A34"/>
<stop offset="0.549" stop-color="#FFA538"/>
<stop offset="0.989" stop-color="#FFC538"/>
</linearGradient>
<linearGradient id="paint29_linear_16670_4158" x1="13.0507" y1="6.0822" x2="2.37872" y2="-2.73043" gradientUnits="userSpaceOnUse">
<stop stop-color="#BA5C25"/>
<stop offset="0.199" stop-color="#FFC538"/>
<stop offset="0.409" stop-color="#FFA538"/>
<stop offset="0.621" stop-color="#F7E041"/>
<stop offset="1" stop-color="#FFA538"/>
</linearGradient>
<linearGradient id="paint30_linear_16670_4158" x1="12.1428" y1="6.65896" x2="3.08388" y2="-0.821698" gradientUnits="userSpaceOnUse">
<stop stop-color="#BA5C25"/>
<stop offset="0.199" stop-color="#FFC538"/>
<stop offset="0.409" stop-color="#FFA538"/>
<stop offset="0.621" stop-color="#F7E041"/>
<stop offset="1" stop-color="#FFA538"/>
</linearGradient>
<linearGradient id="paint31_linear_16670_4158" x1="5.23786" y1="5.83881" x2="2.03674" y2="8.43042" gradientUnits="userSpaceOnUse">
<stop stop-color="#8B451C"/>
<stop offset="1" stop-color="#8B451C" stop-opacity="0"/>
</linearGradient>
<linearGradient id="paint32_linear_16670_4158" x1="3.31296" y1="4.96291" x2="16.4715" y2="4.96291" gradientUnits="userSpaceOnUse">
<stop stop-color="#BA5C25"/>
<stop offset="0.222" stop-color="#FFC538"/>
<stop offset="0.346" stop-color="#FFA538"/>
<stop offset="0.465" stop-color="#FBC23C"/>
<stop offset="0.584" stop-color="#F8D840"/>
<stop offset="0.66" stop-color="#F7E041"/>
<stop offset="0.752" stop-color="#F9D53F"/>
<stop offset="0.915" stop-color="#FDB73B"/>
<stop offset="1" stop-color="#FFA538"/>
</linearGradient>
<linearGradient id="paint33_linear_16670_4158" x1="14.2237" y1="3.56276" x2="11.0079" y2="6.16628" gradientUnits="userSpaceOnUse">
<stop stop-color="white"/>
<stop offset="1" stop-color="white" stop-opacity="0"/>
</linearGradient>
<linearGradient id="paint34_linear_16670_4158" x1="5.70259" y1="6.73216" x2="8.79853" y2="-0.78722" gradientUnits="userSpaceOnUse">
<stop stop-color="#FFC538"/>
<stop offset="1" stop-color="#F7E041"/>
</linearGradient>
<linearGradient id="paint35_linear_16670_4158" x1="9.07793" y1="4.63164" x2="7.93866" y2="1.86456" gradientUnits="userSpaceOnUse">
<stop stop-color="white"/>
<stop offset="1" stop-color="white" stop-opacity="0"/>
</linearGradient>
<linearGradient id="paint36_linear_16670_4158" x1="12.0566" y1="4.68139" x2="6.1502" y2="-0.195989" gradientUnits="userSpaceOnUse">
<stop stop-color="#E37A34"/>
<stop offset="0.549" stop-color="#FFA538"/>
<stop offset="0.989" stop-color="#FFC538"/>
</linearGradient>
<linearGradient id="paint37_linear_16670_4158" x1="15.1229" y1="5.96908" x2="4.78262" y2="-2.56966" gradientUnits="userSpaceOnUse">
<stop stop-color="#E37A34"/>
<stop offset="0.549" stop-color="#FFA538"/>
<stop offset="0.989" stop-color="#FFC538"/>
</linearGradient>
<linearGradient id="paint38_linear_16670_4158" x1="12.2362" y1="4.3049" x2="1.56428" y2="-4.50776" gradientUnits="userSpaceOnUse">
<stop stop-color="#BA5C25"/>
<stop offset="0.199" stop-color="#FFC538"/>
<stop offset="0.409" stop-color="#FFA538"/>
<stop offset="0.621" stop-color="#F7E041"/>
<stop offset="1" stop-color="#FFA538"/>
</linearGradient>
<linearGradient id="paint39_linear_16670_4158" x1="11.3244" y1="4.88158" x2="2.26551" y2="-2.59904" gradientUnits="userSpaceOnUse">
<stop stop-color="#BA5C25"/>
<stop offset="0.199" stop-color="#FFC538"/>
<stop offset="0.409" stop-color="#FFA538"/>
<stop offset="0.621" stop-color="#F7E041"/>
<stop offset="1" stop-color="#FFA538"/>
</linearGradient>
</defs>
</svg>
