<svg width="21" height="21" viewBox="0 0 21 21" fill="none" xmlns="http://www.w3.org/2000/svg">
<path fill-rule="evenodd" clip-rule="evenodd" d="M9.17758 17.3294C9.1795 16.8692 9.55413 16.4976 10.0144 16.4996L15.0143 16.5204C15.4746 16.5223 15.8461 16.897 15.8442 17.3572C15.8423 17.8175 15.4676 18.189 15.0074 18.1871L10.0074 18.1662C9.54719 18.1643 9.17566 17.7897 9.17758 17.3294Z" fill="#454F5B"/>
<path opacity="0.4" d="M15.463 8.86556L11.2634 4.63068L2.99275 12.8325C2.57899 13.242 2.25153 13.5662 2.07425 13.9892C1.89698 14.4121 1.8955 14.8729 1.89363 15.455L1.88513 17.5084C1.88369 17.8535 2.16234 18.1345 2.50752 18.136L4.56084 18.1446C5.143 18.1476 5.60374 18.1499 6.02818 17.9762C6.45261 17.8025 6.77946 17.4777 7.19244 17.0674L15.463 8.86556Z" fill="#454F5B"/>
<path d="M15.9478 2.17988C15.3081 1.85949 14.5553 1.85635 13.9129 2.1714C13.5727 2.33814 13.2748 2.63418 12.8897 3.0166L12.15 3.75016L16.3497 7.98501L17.0895 7.25145C17.475 6.86965 17.7735 6.5741 17.9431 6.23546C18.2635 5.59563 18.2667 4.84288 17.9516 4.20041C17.7849 3.86037 17.4888 3.56233 17.1064 3.17734L16.9639 3.03359C16.5821 2.64797 16.2866 2.34945 15.9478 2.17988Z" fill="#454F5B"/>
</svg>
