<svg width="12" height="12" viewBox="0 0 12 12" fill="none" xmlns="http://www.w3.org/2000/svg">
<path d="M9.70945 7.8301C10.5949 6.812 11.375 5.5765 11.375 4.34717C11.375 2.72601 10.1742 1.375 8.5 1.375C7.7041 1.375 6.9331 1.63134 6 2.48242C5.0669 1.63134 4.29592 1.375 3.5 1.375C1.82578 1.375 0.625025 2.72601 0.625 4.34717C0.625 5.5765 1.40505 6.812 2.29052 7.8301C3.18977 8.86395 4.26455 9.74845 4.98096 10.2842L5.09715 10.3643C5.6906 10.7371 6.44925 10.7102 7.01905 10.2842L7.3037 10.0674C8.0016 9.525 8.92265 8.7347 9.70945 7.8301Z" fill="#FF4842"/>
</svg>
