<svg width="178" height="141" viewBox="0 0 178 141" fill="none" xmlns="http://www.w3.org/2000/svg">
<path d="M28.9554 84.7361C27.3417 78.9332 19.7212 79.4688 19.7212 79.4688L19.9005 83.4862C24.2935 82.772 27.0727 87.8608 27.0727 87.8608L28.9554 84.7361Z" fill="#2196F3"/>
<path d="M103.819 52.4943C112.695 55.1726 118.163 44.9951 118.163 44.9951L112.784 41.9597C110.184 48.209 101.309 47.4948 101.309 47.4948L103.819 52.4943Z" fill="#2196F3"/>
<path d="M148.913 92.3762C147.21 87.5553 140.755 88.448 140.755 88.448L141.113 91.8405C144.789 90.9477 147.389 95.1437 147.389 95.1437L148.913 92.3762Z" fill="#2196F3"/>
<path d="M95.1233 3.99336C93.4199 -0.827548 86.9648 0.0652126 86.9648 0.0652126L87.3235 3.4577C90.9992 2.56494 93.5992 6.76091 93.5992 6.76091L95.1233 3.99336Z" fill="#2196F3"/>
<path d="M56.572 62.9156C54.8686 58.0947 48.4136 58.9875 48.4136 58.9875L48.7722 62.3799C52.448 61.4872 55.0479 65.6832 55.0479 65.6832L56.572 62.9156Z" fill="#2196F3"/>
<path d="M57.3782 7.14136C52.268 7.94484 51.999 14.3727 51.999 14.3727L55.4955 14.5513C55.3162 10.8017 59.8885 9.01615 59.8885 9.01615L57.3782 7.14136Z" fill="#2196F3"/>
<path d="M33.8882 119.451C42.7639 122.13 48.2327 111.952 48.2327 111.952L42.8535 108.917C40.2536 115.166 31.3779 114.452 31.3779 114.452L33.8882 119.451Z" fill="#2196F3"/>
<path d="M130.805 67.4035C131.433 63.2968 126.502 61.6006 126.502 61.6006L125.516 64.1896C128.474 64.9038 128.743 68.8319 128.743 68.8319L130.805 67.4035Z" fill="#2196F3"/>
<path d="M155.35 28.5685C151.943 30.8004 153.826 35.6213 153.826 35.6213L156.426 34.6393C154.991 31.961 157.771 29.1041 157.771 29.1041L155.35 28.5685Z" fill="#2196F3"/>
<g filter="url(#filter0_d_13848_2626)">
<path fill-rule="evenodd" clip-rule="evenodd" d="M88.1796 76.3638C77.1484 76.3638 68.1797 85.3325 68.1797 96.3638C68.1797 107.395 77.1484 116.364 88.1796 116.364C99.2109 116.364 108.18 107.395 108.18 96.3638C108.18 85.3325 99.2109 76.3638 88.1796 76.3638Z" fill="#2196F3"/>
</g>
<path fill-rule="evenodd" clip-rule="evenodd" d="M97.8515 89.6216C98.3359 90.106 98.3359 90.9028 97.8515 91.3872L86.1328 103.106C85.8906 103.348 85.5703 103.473 85.25 103.473C84.9297 103.473 84.6094 103.348 84.3672 103.106L78.5078 97.2466C78.0234 96.7622 78.0234 95.9653 78.5078 95.481C78.9922 94.9966 79.7891 94.9966 80.2734 95.481L85.25 100.458L96.0859 89.6216C96.5703 89.1294 97.3671 89.1294 97.8515 89.6216Z" fill="white"/>
<path d="M141.921 116.875C140.307 111.072 132.687 111.608 132.687 111.608L132.866 115.626C137.259 114.911 140.038 120 140.038 120L141.921 116.875Z" fill="#2196F3"/>
<path d="M77.1919 24.9974C73.0679 25.4438 72.6196 30.5326 72.6196 30.5326L75.3989 30.8897C75.3989 27.8543 79.1643 26.6044 79.1643 26.6044L77.1919 24.9974Z" fill="#2196F3"/>
<path d="M118.34 18.927C120.851 25.2656 129.368 23.8371 129.368 23.8371L128.65 19.2841C123.809 20.6232 120.133 15.1774 120.133 15.1774L118.34 18.927Z" fill="#2196F3"/>
<path d="M77.1919 65.1716C73.0679 65.618 72.6196 70.7067 72.6196 70.7067L75.3989 71.0639C75.3989 68.0285 79.1643 66.7786 79.1643 66.7786L77.1919 65.1716Z" fill="#2196F3"/>
<path d="M42.0498 29.9073C42.6773 25.8006 37.7464 24.1044 37.7464 24.1044L36.7603 26.6934C39.7188 27.4076 39.9878 31.3357 39.9878 31.3357L42.0498 29.9073Z" fill="#2196F3"/>
<path d="M0.0428827 59.815C-0.674341 66.2429 7.84269 67.7606 7.84269 67.7606L9.36679 63.5646C4.25657 63.1182 3.53935 57.1367 3.53935 57.1367L0.0428827 59.815Z" fill="#2196F3"/>
<path d="M171.564 74.2778C175.688 74.5456 177.033 69.5462 177.033 69.5462L174.343 68.7427C173.895 71.6888 169.95 72.3137 169.95 72.3137L171.564 74.2778Z" fill="#2196F3"/>
<defs>
<filter id="filter0_d_13848_2626" x="44.1797" y="52.3638" width="88" height="88" filterUnits="userSpaceOnUse" color-interpolation-filters="sRGB">
<feFlood flood-opacity="0" result="BackgroundImageFix"/>
<feColorMatrix in="SourceAlpha" type="matrix" values="0 0 0 0 0 0 0 0 0 0 0 0 0 0 0 0 0 0 127 0" result="hardAlpha"/>
<feOffset/>
<feGaussianBlur stdDeviation="12"/>
<feComposite in2="hardAlpha" operator="out"/>
<feColorMatrix type="matrix" values="0 0 0 0 0.2 0 0 0 0 0.145098 0 0 0 0 1 0 0 0 0.48 0"/>
<feBlend mode="normal" in2="BackgroundImageFix" result="effect1_dropShadow_13848_2626"/>
<feBlend mode="normal" in="SourceGraphic" in2="effect1_dropShadow_13848_2626" result="shape"/>
</filter>
</defs>
</svg>
