<svg width="16" height="16" viewBox="0 0 16 16" fill="none" xmlns="http://www.w3.org/2000/svg">
<path fill-rule="evenodd" clip-rule="evenodd" d="M7 2C7.3682 2 7.66667 2.29848 7.66667 2.66667V7.33333H12.3333C12.7015 7.33333 13 7.6318 13 8C13 8.3682 12.7015 8.66667 12.3333 8.66667H7.66667V13.3333C7.66667 13.7015 7.3682 14 7 14C6.6318 14 6.33333 13.7015 6.33333 13.3333V8.66667H1.66667C1.29848 8.66667 1 8.3682 1 8C1 7.6318 1.29848 7.33333 1.66667 7.33333H6.33333V2.66667C6.33333 2.29848 6.6318 2 7 2Z" fill="white"/>
</svg>
